<svg xmlns="http://www.w3.org/2000/svg" viewBox="0 0 1025 1000"><defs><clipPath id="a"><path fill="#fff" d="m757.26 480.91-182.01-.45 38.01-130.34 175.56.43-31.56 130.36z"/></clipPath><clipPath id="b"><path fill="none" d="M731.76 534.37s-40.37 8.43-56.28.27c0 0 .06-.44.16-1.25.15-1.16.4-3.07.73-5.53 2.22-17 7.93-60.64 8.6-65.84.84-6.49 2.94-32.22 11.69-33.65 0 0-1.94 8.23 9.08 12.09s22.55-13.79 22.55-13.79-5.62 22.91-4.3 40.55c1 13.42 5 45.26 6.82 59.75.53 4.18.89 6.91.94 7.34a.28.28 0 0 1 .01.06Z"/></clipPath></defs><g style="isolation:isolate"><path fill="#f0ebff" d="M121.55 94.42h183.12v245.31H121.55z"/><path fill="#fff" d="M128.46 103.68h169.3v226.8h-169.3z"/><path fill="#e0d1fc" d="M128.46 330.75s-2.08-67 31.09-76 50.45-18 48.37-44.92 22.12-37.31 42.85-41.46 47-65 47-65v227.38H129.84m66.34-174.83a27.64 27.64 0 1 1-27.64-27.64 27.64 27.64 0 0 1 27.64 27.64Z"/><ellipse cx="512.5" cy="901.98" fill="#e0d1fc" rx="414.88" ry="38.82"/><path fill="#7b4fc9" d="m332.42 873.52-12.57.99V516.6h33.74l-21.17 356.92zm112.94-17.23 12.27.95V516.2h-32.94l20.67 340.09z"/><path fill="#0c1e42" d="m566.61 500.23-63.58-117.8h-28.59l-1.8 117.6-8.03-.13 1.91-125.5h41.31l65.85 122.02-7.07 3.81zM425.89 316.95l6.83-1.6 1.61 3.61-6.03 3.62-2.41-5.63z"/><path fill="#0c1e42" d="M498.6 379.94h8.03v114.65h-8.03z" transform="rotate(-10.09 502.569 437.244)"/><path fill="#9d79dd" d="M463.77 307.24a63.3 63.3 0 0 1-10.23 4.46 73.14 73.14 0 0 1-22.54 3.76l-5.78-17.78A16.87 16.87 0 0 1 436 276.42a15.6 15.6 0 0 1 1.87-.49 16.63 16.63 0 0 1 3.35-.34 16.88 16.88 0 0 1 16 11.66Z"/><path fill="#e0d1fc" d="M458.74 339.43a18.31 18.31 0 0 1-2 .79 16.87 16.87 0 0 1-21.26-10.83L431 315.46a73.14 73.14 0 0 0 22.58-3.76 63.3 63.3 0 0 0 10.23-4.46l3.77 11.76a16.87 16.87 0 0 1-8.84 20.43Z"/><path fill="#0c1e42" d="m463.4 353.5-25.31-1.61a4 4 0 0 1-3.35-2.23l-14.29-28.93a4 4 0 0 1 1.83-5.38 4 4 0 0 1 5.38 1.82l12.23 24.77a4 4 0 0 0 3.35 2.23l16.91 1.07a4 4 0 0 0 3.17-1.25l8.1-8.57a4 4 0 0 0 1-3.68l-5.73-24.42a4 4 0 0 1 3-4.83 4 4 0 0 1 4.83 3l6.71 28.62a4 4 0 0 1-1 3.68l-13.66 14.46a4 4 0 0 1-3.17 1.25Z"/><path fill="#0c1e42" d="M463.65 345.48h28.12v8.03h-28.12z"/><path fill="#0c1e42" d="M478.92 350.3h12.85v25.31h-12.85zm-10.05-44.99-5 1.57a2.73 2.73 0 0 0-1.76 3.46 2.73 2.73 0 0 0 3 1.84l5.35-.85Z"/><path d="M439.8 305.66a3 3 0 1 1-2.94-3.27 3.11 3.11 0 0 1 2.94 3.27Zm7.51-1.96a3 3 0 1 1-2.94-3.27 3.12 3.12 0 0 1 2.94 3.27Z" style="mix-blend-mode:multiply" fill="#9d79dd"/><ellipse cx="451.88" cy="301.74" rx="2.94" ry="3.26" style="mix-blend-mode:multiply" fill="#9d79dd"/><path d="M436.59 296.82a3 3 0 1 1-2.94-3.26 3.12 3.12 0 0 1 2.94 3.26Zm7.5-1.96a3 3 0 1 1-2.93-3.26 3.12 3.12 0 0 1 2.93 3.26Zm7.51-1.96a3 3 0 1 1-2.94-3.26 3.11 3.11 0 0 1 2.94 3.26Zm-18.23-4.9a3 3 0 1 1-2.93-3.26 3.12 3.12 0 0 1 2.93 3.26Zm7.51-2a3 3 0 1 1-2.94-3.26 3.11 3.11 0 0 1 2.94 3.26Zm7.51-1.93a3 3 0 1 1-2.94-3.27 3.12 3.12 0 0 1 2.94 3.27Z" style="mix-blend-mode:multiply" fill="#9d79dd"/><path d="M458.74 339.43c1.24-2.66 2.1-6.68 2.1-12.83 0-7.65-3.63-9-7.3-14.9-.38-.61-.76-1.26-1.14-2-4-7.63 0-10.44-4.82-22.49-2.72-6.81-6.73-9.9-9.7-11.3a16.63 16.63 0 0 1 3.35-.34 16.88 16.88 0 0 1 16 11.66l6.5 20 3.85 11.77a16.87 16.87 0 0 1-8.84 20.43Z" style="mix-blend-mode:multiply" fill="#e0d1fc"/><path fill="#5c4984" d="M492.16 350.65a8.44 8.44 0 1 1-8.87-8 8.43 8.43 0 0 1 8.87 8Z"/><circle cx="486.55" cy="351.1" r="8.44" fill="#9d79dd"/><path fill="#e0d1fc" d="M492.17 351.1a5.62 5.62 0 1 1-5.62-5.62 5.62 5.62 0 0 1 5.62 5.62Z"/><path fill="#1d4d95" d="M463.97 487.72H766.1v11.6H463.97z" transform="rotate(.14 622.678 498.532)"/><path fill="#2469ce" d="m765.81 488.35-202.71-.5 42.34-145.16 195.53.48-35.16 145.18z"/><path fill="#fff" d="m757.26 480.91-182.01-.45 38.01-130.34 175.56.43-31.56 130.36z"/><g clip-path="url(#a)"><path fill="#1d4d95" d="M539 649.43c-1 4.13 2.52 8.93 11.67 7.82a15.43 15.43 0 0 0 8-3.9c.1-.08 1.39-1.34 1.49-1.42 2.71-2.38 12.57-14.83 13.43-19.14.73-3.63-9-5.74-15.76-2.8S540 645.3 539 649.43Z"/><path fill="#0c1e42" d="M539.33 648.8c-1 4.13 2.55 7.91 11.7 6.8a15.5 15.5 0 0 0 8-3.9c.1-.08 1.39-1.34 1.49-1.42 2.71-2.39 12.48-15.21 12.71-18.08.27-3.41-8.27-6.81-15-3.86s-17.92 16.33-18.9 20.46Z"/><path fill="#ffb592" d="M556.05 601.12s1.59 11.82.87 18.89-5.91 12.4-6.83 13.59-7.56 6.91-8.58 10.31-1.32 4-.56 5.39 3.87 3 8 3.82 9.15-2 11.19-4.46 1.42-8 4.06-10 8.13-3.7 8.49-7.24-2.79-11.89-1.86-19.09 1.57-11.37 1.57-11.37-15.03-3.87-16.35.16Z"/><path fill="#0c1e42" d="M546.29 637.13s12.72-.9 17.06 9.24l2.77-3.56a18.86 18.86 0 0 0-16.43-8.95Zm10.8-20.13s4.59 1.8 13.64.22l.69 4.57s-9.65 1.37-14.69-.47ZM544 640s10.93.42 17.21 7.68a15.64 15.64 0 0 1-2.08 2.68 47.89 47.89 0 0 0-17.06-7.67s1.32-2.44 1.93-2.69Z"/><path fill="#1d4d95" d="M563.18 654.94a3.81 3.81 0 0 0 1.07 3.73 15.5 15.5 0 0 0 11.07 4.33c10.6.22 14.36-14.32 16.8-17.95s6.41-5.42 4.62-11.11c-.77-2.45-10.81-5.24-15.26-2.69-4.19 2.41-15.86 14.22-18.3 23.69Z"/><path fill="#0c1e42" d="M563.61 652.8a3.81 3.81 0 0 0 1.06 3.72 15.53 15.53 0 0 0 11.08 4.35c10.6.23 14.36-14.31 16.8-18s5.08-6.54 4.19-9-10.38-7.39-14.84-4.84c-4.18 2.48-15.9 14.29-18.29 23.77Z"/><path fill="#ffb592" d="M583.57 600.08s-1.08 15.76-2.43 22.53-8 16.26-8.84 16.79-5.22 6.34-6.77 9.81-1.68 3.28-.56 5.39 8.59 5.15 14.34 3.89 8.06-11.13 10.17-14c2.57-3.44 5-5.35 6.11-9.09s-1-9.64-.18-15.49 5.11-16.16 5.11-16.16-15.52-7.18-16.95-3.67Z"/><path fill="#0c1e42" d="M564.92 650.33s12.5-1.32 18.78 5.94l2.28-2.81s-8.76-7.75-19.56-6.13Zm3.58-6.54c.2-.13 7.93-1.85 19.33 5.58l2.71-4.1s-9-8.32-19.4-5.24Zm13.12-23.99a24.51 24.51 0 0 0 13.66 1.38v4.29s-7.89 2.14-14.48-1.56Z"/><path fill="#ffb592" d="M660.76 403.32s1.16 8 1.59 10.11 3.65 3.17 3.65 3.17-9 6.94-24.82 2.06l-5-4.32s2-1.26 2.35-4.8 22.23-6.22 22.23-6.22Z"/><path fill="#1d4d95" d="M623 550.13c-5.15 7.73-33.5 7.75-36 7.26a8.44 8.44 0 0 0-4.35 0 3.47 3.47 0 0 0-2.09 2.17c-1.09 2.87-1.61 12.39-1.21 21.57s-4.54 23.66-4.54 23.66c-3.19 2.26-8.89 2.78-14 2.24-5.82-.62-10.9-2.6-10.71-4.93.36-4.4.42-24.48-1.8-38.32s-4.77-20.45.31-27.86 15.29-8.63 23.81-13.46 24.38-8.54 24.38-8.54l25.64 8.81s5.7 19.67.56 27.4Z"/><path fill="#feb500" d="m599.12 459.05-7.77 7.64s-3.57 1.53-4 3.51S575.54 484 573 488.81s-5.25 4.79-6.24 8-.39 8.86 6.38 13.64 11 .13 11.57-2-.54-3.37 3.1-4.36 6.11-7.37 10.86-8.83 11.4-27.07.45-36.21Z"/><path d="M649.4 421.49c-.49-.09.23-1.15-1-3.79s-4.4-2.45-6.8-2.7-2.21-1.82-2.21-1.82l.45-.14a4.37 4.37 0 0 0 .62.17l.23.05c2.85.63 7.68 1.24 11.35-.65a21.25 21.25 0 0 0 6.92-5.75l.44-.14a41.16 41.16 0 0 1-.15 10.25c-.79 5.64-9.35 4.62-9.85 4.52Z" style="mix-blend-mode:multiply" fill="#ffb592" opacity=".77"/><path fill="#1d4d95" d="M659.5 558.27c-6.64 6.58-28.11 7.45-36.93 6s-8-1.41-9.82.11 1.4 11.1-1 22.14a210.86 210.86 0 0 1-7.49 24.61 46.08 46.08 0 0 1-13.06-.13 24.43 24.43 0 0 1-10.2-4 12.28 12.28 0 0 1-3.25-3.2l.06-1.19c3.27-9.48 3.74-48 6.58-55.37a12.76 12.76 0 0 1 5.83-6.82c3.11-1.78 7-2.71 11.44-4 8-2.35 19.06-7.71 20.67-8.29s38.73-.14 38.73-.14a97.76 97.76 0 0 1 1.75 13.57c.36 6.52-.14 13.56-3.31 16.71Z"/><path d="M598.17 492.36c-2.57 5.16-3.56 4.1-3.46 7.9v.09c-5.22 2.7-15.23 2.2-15.23 2.2l-2.22-4.39s2.28-9.69 8.68-12.53a39.15 39.15 0 0 0 14.18-12.05c.59 8.33.17 14.54-1.95 18.78Z" style="mix-blend-mode:multiply" fill="#feb500" opacity=".59"/><path fill="#feb500" d="M665.49 521.76c-2 7.66-3.33 7.23-3.33 7.23s-26.6 4.15-47-2.84L612 525c-17.48-6.34-19.31-10.24-19.31-10.24-1.42-1.49-.37-7.63.85-9.45s1.29-1.3 1.19-5v-.09c-.1-3.8.89-2.74 3.46-7.9 2.12-4.24 2.54-10.45 2-18.78q-.2-2.68-.51-5.67c-1.2-11.23-.17-11.2 3.65-20.91s2.21-21.38 8.94-26.74 24.38-6.22 24.38-6.22c9.09 9.54 28.81 2 28.81 2s19.66 8.22 21 13.64c.76 3.13-4.07 17.9-8.94 31.58-3.53 9.92-7.08 19.27-8.51 23.17-3.41 9.22-1.48 29.7-3.52 37.37Z"/><path fill="#112d59" d="m621.93 543.82 21.63-9.43.49-2.48-65.65-10.16-22.36 8.76.3 1.95 65.59 11.36z"/><path d="M618 438.76s-2.8 17.48-6.92 22.67-2.08 24.15-4.45 31.57a63 63 0 0 0-2.7 11s25.48 11.78 37.44 9.52c0 0 5.64-16.22 5.3-26.6s-.74-13.54 3.26-21.51 6.2-20.75 6.2-20.75-32.49-6.83-38.13-5.9Z" style="mix-blend-mode:screen" fill="#feb500"/><path fill="#0c1e42" d="m621.63 541.87 22.42-9.96-65.95-12.11-22.06 10.71 65.59 11.36z"/><path fill="#e0d1fc" d="m615.66 538.92 16.22-7.2-47.71-8.77-15.96 7.76 47.45 8.21z"/><path fill="#0c1e42" d="M627.87 379.58s-1 10.11-2.17 16.06-4.72 9-5.44 12.66-2.08 7-.2 7.86 15.23 1.56 16.74-1.44 3.51-6.2 2.91-17.83a94.83 94.83 0 0 0-2.72-19.1Z"/><path fill="#ffb592" d="M665.11 397c-1.61.36-2.23 1.24-2.67 3.07a16.62 16.62 0 0 1-2.28 5.09c-.36.57-.77 1.13-1.2 1.69a21.25 21.25 0 0 1-6.92 5.75c-3.67 1.89-8.5 1.28-11.35.65l-.23-.05a4.37 4.37 0 0 1-.62-.17 6.26 6.26 0 0 1-3.05-2.27 29.9 29.9 0 0 1-4-8.19c-2.12-6.61-4.83-16.25-2.82-26.33s5.64-15.37 11.75-17.58 19.92-2.56 24.81 6.49a27.41 27.41 0 0 1 2.56 18.2s1.05-1 1.49 2-3.85 11.26-5.47 11.65Z"/><path d="M660.16 405.13a21.55 21.55 0 0 1-8.12 7.44c-3.67 1.89-8.5 1.28-11.35.65 3.63-1.21 6.79-3.51 6.23-6.82-.63-3.74 2.64-2.91 4.32-7.9s-1-17.54-1-17.54l9.38-2.26 2.48 6.51a136.45 136.45 0 0 1-1.94 19.92Z" style="mix-blend-mode:multiply" fill="#ffb592" opacity=".31"/><path fill="#0c1e42" d="M674.18 419.91c-1.72-.67-4.57 1.88-8.56 1.51-.29 0-.59-.07-.89-.13-4.46-.89-6.27 1.32-9.25-1.85s-.4-7.46.49-11.07-2.35-6.3-2.29-10.07 5-11.37 3.2-14.31-9.55-1.21-14-3-5-4.1-5-4.1l-.26.42c-3.39 5.35-8.3 3.63-8.3 3.63a2.84 2.84 0 0 1-1.42-1.4c-.33-.92-.6-4.75 2.27-11.4S642.33 357 650 356.67s13.71 1.88 18.07 6.7 5.07 14.24 4.84 22.26 3.81 11.93 4.47 20.65-1.38 14.34-3.2 13.63Z"/><path d="M665.49 521.76c-2 7.66-3.33 7.23-3.33 7.23s-26.6 4.15-47-2.84L612 525l.17-.16c8.33-7.25 5.79-17.07 7.11-25.4s19.12-4.6 16-9.52 3.5-6.35 16.55-10.62 20.63-24.23 20.63-24.23c2.37-.21 4 2.09 5.09 6-3.53 9.92-7.08 19.27-8.51 23.17-3.44 9.37-1.51 29.85-3.55 37.52Z" style="mix-blend-mode:multiply" fill="#feb500"/><path fill="#feb500" d="M685.26 483.35c-1.62 8.1-4.26 11.87-6.77 17.55s-8.78 6.15-9.44 9.46c-.58 2.92-17.77 19.73-25.76 22.3a4.42 4.42 0 0 1-2.6.21c-2.19-.69-7.84-7.23-7.38-12.12 0 0 1.88-5.12 5-6.74s12.41-15.73 14.86-17.65 6.44-7.31 6.86-9.46 1.36.1 1.82-4.79 7.22-25 10.28-34.36 8.29-19.14 14.3-18.28a15.07 15.07 0 0 1 2.45 2.22c2.86 3.15 7 9.75 5.23 20.44-2.69 15.79-7.24 23.13-8.85 31.22Z"/><path d="M685.26 483.35c-1.62 8.1-4.26 11.87-6.77 17.55s-8.78 6.15-9.44 9.46c-.58 2.92-17.77 19.73-25.76 22.3 3-3.29 2.08-7.4 1.12-11.15-1.16-4.53 1.48-4.86 5.65-5.92s9.74-4.07 10.9-7.28 7.86-2.38 7.49-8.29-4.46-6.91-3.9-9.72 5.84-1.75 9.48-3.6-2.45-2.38.62-4.86c4.13-3.33 9.37-5.48 11.68-19 1.71-9.95 2.32-25.37 2.5-31.18 2.86 3.15 7 9.75 5.23 20.44-2.64 15.82-7.19 23.16-8.8 31.25Z" style="mix-blend-mode:multiply" fill="#feb500"/><path fill="#ffb592" d="m636.25 522.1-4.19 1.9s-10.81.77-12.26 5.46 1.66 7.65 5.13 7.9 16.81-6.69 16.81-6.69 1.57-6-2-8.36a3.58 3.58 0 0 0-3.49-.21Z"/><path fill="#ffb592" d="M628.69 524.49h-8.23s-5.48.8-6.44 2.15-.07 1.19 1 1.22 3.76-.79 5.32-.83 4.06 1.16 5.22.53a18 18 0 0 0 3.13-3.07Z"/><path fill="#ffb592" d="m622 527.14-4.64 2.38-3.7 2.38s-3.24 2.48-3.14 3.59.84.63 2.14-.2a25.41 25.41 0 0 1 3.64-2.08c1.24-.53 4.14-2.14 4.14-2.14a1.78 1.78 0 0 0 2.17-1.12c.67-1.59 1.05-2.2-.61-2.81Z"/><path fill="#ffb592" d="m621.75 530.25-4 2-.12.07-3.6 2.31-.09.07c-.4.31-3.19 2.51-3.09 3.55s.84.63 2.14-.2a24.87 24.87 0 0 1 3.64-2.08c1-.41 2.91-1.46 3.74-1.92a1.35 1.35 0 0 1 .73-.16 1.73 1.73 0 0 0 1.83-1.18c.48-1.2.82-1.84.27-2.34a1.31 1.31 0 0 0-1.45-.12Zm6.54 2.51-4 2-.11.06-3.6 2.32-.1.07c-.4.31-3.18 2.51-3.09 3.54s.84.64 2.14-.2a25.85 25.85 0 0 1 3.64-2.07c1-.42 2.91-1.47 3.75-1.92a1.21 1.21 0 0 1 .72-.16 1.75 1.75 0 0 0 1.84-1.19c.48-1.19.81-1.83.26-2.33a1.3 1.3 0 0 0-1.45-.12Z"/><path fill="#ffb592" d="m624.33 532-4 2-.11.06-3.6 2.32-.1.07c-.4.31-3.18 2.51-3.08 3.54s.84.64 2.13-.2a25.38 25.38 0 0 1 3.65-2.07c.95-.42 2.9-1.47 3.74-1.92a1.33 1.33 0 0 1 .73-.17 1.71 1.71 0 0 0 1.83-1.18c.48-1.19.81-1.83.27-2.33a1.31 1.31 0 0 0-1.46-.12Z"/><path d="M659.5 558.27c-6.64 6.58-28.11 7.45-36.93 6s-8-1.41-9.82.11 1.4 11.1-1 22.14a210.86 210.86 0 0 1-7.49 24.61 46.08 46.08 0 0 1-13.06-.13c2-4.67 5.4-13.52 6.31-22.22 1.31-12.62 2.29-24.45.24-27.09s-.23-3.14 6.32-4.2 0-1.59-4.54-4.73 2.11-5.42 10.51-1 10.7 1.44 20.12-1 7.73 4.29 22.17 0c6.44-1.94 9.3-5.65 10.49-9.17.35 6.49-.15 13.53-3.32 16.68Zm-75.1-11.02c-.7 1.79-1.25 5.46-1.74 10.12a3.47 3.47 0 0 0-2.09 2.17c-1.09 2.87-1.61 12.39-1.21 21.57s-4.54 23.66-4.54 23.66c-3.19 2.26-8.89 2.78-14 2.24 1.61-3 3.52-8.21 3.72-16.57.36-14.7-3.11-18-.21-22.2s-6.35-12.09-1.06-16.19 7.43 4.06 8-1.33-1.33-14.86 3.43-12c2.84 1.69 9.75 1.63 15.55 1.73a12.76 12.76 0 0 0-5.85 6.8Z" style="mix-blend-mode:multiply" fill="#1d4d95" opacity=".5"/><path d="M665.62 421.42c-.29 0-.59-.07-.89-.13-4.46-.89-6.27 1.32-9.25-1.85s-.4-7.46.49-11.07-2.35-6.3-2.29-10.07 5-11.37 3.2-14.31-9.55-1.21-14-3-5-4.1-5-4.1l-.26.42a3.57 3.57 0 0 1 .55-1s10.41 3.79 15.93 2 7.93-.14 10.51 2.44.23 9.15.77 15.09 2.64 3.11 2.48 9.09c-.18 5.53-3.86 12.6-2.24 16.49Z" style="mix-blend-mode:color-burn" fill="#0c1e42"/><path fill="#0c1e42" d="m556.04 530.51-16.09-48.55 68.1 12.54 13.58 47.37-65.59-11.36z"/><path d="M608.05 494.5s-11.56 2-14.53 10.85-15 8.7-19.52 11.74-2.8 5.45-8 6.81-9.91 6.61-9.91 6.61l65.59 11.36Z" style="mix-blend-mode:multiply" fill="#0c1e42" opacity=".33"/><path fill="#2469ce" d="m576.06 515.7-3.04-9.18 12.87 2.37 2.56 8.95-12.39-2.14z"/><path fill="#ffb592" d="M729.59 427.55s-5.59 13.22-17.68 15.35-17.62-4.12-15.25-14.53v-4.39s18.19-15.42 21.65-14.58l.22 1c.73 3.25 3.18 13.36 5.52 15a13.4 13.4 0 0 0 3 1.52 11.8 11.8 0 0 0 2.54.63ZM680 664.18s.23 4.13-.5 5.5 12.1 3 13.47 1.47 2.08-7.44 2.08-7.44-13.56-3.02-15.05.47Z"/><path fill="#2469ce" d="m679.63 529.73-6.06 24.33-23.11-2s2.35-6.83 5.25-16.52c3.6-12 8-28.42 9.83-41.69 1.08-7.94 2.16-16.6 3.25-24.72 2.2-16.4 4.45-30.62 6.92-32.35 3.69-2.59 14.82-10.28 20.95-8.45 0 0-4 25.5-5.67 47.39s-11.36 54.01-11.36 54.01Z"/><path fill="#2469ce" d="M671.88 493.94a186.07 186.07 0 0 0-11 22.91c-1.41 3.42-2.63 6.47-3.67 8.94-3.14 7.38-7.12 9.16-7.12 9.16s-3.81 6.57-9.56 5.12a10.63 10.63 0 0 1-1.83-.63c-4.31-2-5.64-6.24-4.63-7.91 1.13-1.89 7-18.93 8-23.87s7.28-19.11 8.15-22.71 2.73-3.09 4.45-7.13 3.3-16.57 7.36-26.34 15.88-16.19 15.88-16.19c2.19 1.03.85 46.88-6.03 58.65Z"/><path d="M660.89 516.85c-1.41 3.42-2.63 6.47-3.67 8.94-3.14 7.38-7.12 9.16-7.12 9.16s-3.81 6.57-9.56 5.12a10.63 10.63 0 0 1-1.83-.63c2.42-3.35 9.29-13.25 11.41-20.13 2.58-8.4-.94-12 2.2-11s6.6-3.52 6.3-8.12-2.5-8.66 1.07-11.42.14-13.58 5.31-16.78a29.27 29.27 0 0 0 3.79-2.77c-1.09 8.12-2.17 16.78-3.25 24.72a219.48 219.48 0 0 1-4.65 22.91Z" style="mix-blend-mode:multiply" fill="#2469ce" opacity=".45"/><path fill="#0c1e42" d="M684.4 394.34a9.2 9.2 0 0 0-1.4 4.56c-.09 2.71.47 3 .44 4.62s2.44 2.15 2.44 2.15l1.71-11.6Z"/><path fill="#fff" d="M731.76 534.37s-40.37 8.43-56.28.27c0 0 .06-.44.16-1.25.15-1.16.4-3.07.73-5.53.79-6.08 2-15.54 3.32-25.43C682 484.6 684.54 465.36 685 462c.84-6.49 2.94-32.22 11.69-33.65 0 0-1.94 8.23 9.08 12.09s22.55-13.79 22.55-13.79-5.62 22.91-4.3 40.55c1 13.42 5 45.26 6.82 59.75.53 4.18.89 6.91.94 7.34a.28.28 0 0 1-.02.08Z"/><path d="M685 462c-.43 3.34-3 22.58-5.28 40.41 0-.32-1.14-46.13 3.26-60.62s13.71-13.44 13.71-13.44c-8.78 1.45-10.88 27.18-11.69 33.65Z" style="mix-blend-mode:multiply" fill="#2469ce"/><path fill="#0c1e42" d="M672.49 522.48v-.44c.38 0 38 2 58-2.94l.1.43c-20.01 4.99-57.72 2.97-58.1 2.95Zm3.94-10.03-.07-.44c.09 0 8.86-1.42 15.54-.24s9.45 1.3 16.87.8c7.25-.5 19.32-2.89 19.44-2.92l.09.44c-.12 0-12.22 2.43-19.5 2.92-7.47.51-10.32.37-17-.81s-15.28.23-15.37.25Zm1.77-15.35.09-.44c.15 0 15.07 2.84 22.78 3s27.59-2.28 27.79-2.31l.06.44c-.2 0-20.11 2.51-27.86 2.32s-22.71-2.99-22.86-3.01Zm-.46-11.28.06-.44c.13 0 13 1.82 21.47 2.16 5 .2 13.09-.59 19-1.16 4.38-.43 7.55-.73 8.29-.56l-.1.43a67.63 67.63 0 0 0-8.13.58c-5.91.58-14 1.37-19 1.17-8.54-.35-21.46-2.16-21.59-2.18Zm2.62-9.92v-.44c.15 0 14.65-.11 23.09 1.12s24.75-2.53 24.92-2.57l.1.43c-.17 0-16.62 3.82-25.08 2.58s-22.89-1.12-23.03-1.12Zm-.46-10.67v-.44c.38 0 38.06 2.57 44.84.65l.12.43c-6.86 1.94-43.41-.53-44.96-.64Zm.64-12.23v-.45c.29 0 29.22 1 37.91 0s10.76-2.17 10.78-2.19l.23.38c-.09.06-2.21 1.29-11 2.25s-37.63.01-37.92.01Zm24.35-8.63c-8.58-1.71-16.91-6.82-17-6.88l.23-.38c.11.07 11.24 6.89 21 7.34s25.34-10.16 25.5-10.27l.25.37c-.16.11-15.93 10.8-25.77 10.35a30 30 0 0 1-4.21-.53Z" clip-path="url(#b)"/><path fill="#f0ebff" d="M745.06 559.4c-1.13 4.15-26.76 20.51-30 19.87s-3.72 1.22-4.88 4-.92 20.52-2 33.6-6.12 33.7-6.32 40.77c-.18 6.51-.15 6.77-.14 6.77-3 2.55-8.73 3-14.29 2.48-6.48-.59-12.67-2.48-13.7-3.83-1.92-2.5 0 0 1.12-7.18s0-22.21-1.82-33.31.86-22.51.21-35.18c0-1-.08-1.94-.11-2.86-.27-11 1.29-17.72 3.29-22.2.74-1.64 3.31-5.25 6.4-9.31 6.06-8 14.11-17.74 14.11-17.74 3.08-4.07 35.73-5.58 42.39-3.34 3.67 1.23 5.37 8.17 6 14.85.49 5.47.25 10.74-.26 12.61Z"/><path fill="#0c1e42" d="M733.94 534.05s-.78.11-2.19.26c-8.08.91-36.77 3.63-56.11-.92.15-1.16.4-3.07.73-5.53a229.58 229.58 0 0 0 54.44-.89l1.88-.27Z"/><path fill="#ffb592" d="M620.07 626.08s.79 6.65-.06 9.36 12.3 4.26 15.38 2.46l.44-8.23Z"/><path fill="#f0ebff" d="M684.8 570.51a43 43 0 0 1-10.65-.62c-10.17-1.55-22.07-5-23.1-5.2-1.46-.29-.61 3-1.42 7.12s-3.22 17.65-4.17 24-3.45 26.37-2.72 30.29a9.61 9.61 0 0 1-1 6.6c-2.75.58-7.05.39-11.52-.17-8.14-1-16.85-3.3-17.79-4.46-1.45-1.8 1.08-3.87 2.76-9.28s.53-38.28.38-45.11.22-20.82 6.37-29 14.3-12.57 21.31-13.59 34 .59 34 .59 23.08 2.48 24.13 4.81-7.13 32.88-16.58 34.02Z"/><path fill="#2469ce" d="M758.52 560.87c-.74.79-3 2-5.9 3.44-5.06 2.44-12.14 5.38-16.94 7.31a3.5 3.5 0 0 1-4.8-3.34c.41-13.59-2-42.55-3.08-51.17-.25-1.93-.77-5-1.42-8.82-2.75-16.17-7.9-45.85-5.63-59.7 2.75-16.81 7.37-21.75 7.54-21.92s20.65 7.89 22.92 8.65 4.25 8.25 3.35 17.29a56.5 56.5 0 0 0-.16 7c.25 9.66 2 23.26 3.5 35.41 1.9 15.47 3.5 62.8.62 65.85Z"/><path d="M758.52 560.87c-.74.79-3 2-5.9 3.44.38-10.41-5.62-31.74-9.06-38.31-3.84-7.26 4.07-4.47-1.35-13s-6.14-6.36-3.47-13.69.62-39.22.62-39.22l15-.53c.25 9.66 2 23.26 3.5 35.41 1.94 15.52 3.54 62.85.66 65.9Z" style="mix-blend-mode:multiply" fill="#2469ce" opacity=".71"/><path d="M726.38 508.29c-2.75-16.17-7.9-45.85-5.63-59.7 2.75-16.81 7.37-21.75 7.54-21.92s-4.35 19.54-2.71 32.56c1.42 11.31 1.33 39.51.8 49.06Z" style="mix-blend-mode:multiply" fill="#2469ce"/><path fill="#ffb592" d="m697.16 461.83-5.06-2.25s-13.73-3.11-13.62-6.72c.2-6.39.84-10.37 4.47-11.05s3.93 2.42 7.82 2.26 4.22-.87 6.14.6 3.08 4.82 4.73 5.77a15.71 15.71 0 0 1 3.53 3.5s-4.53 7.06-8.01 7.89Z"/><path fill="#ffb592" d="m697.42 445.12-2.62-3.3-2.8-2.14-4-2.46s-1.75-1.11-2.15-.58-.53 1.1.75 2.26a19.85 19.85 0 0 1 2.77 2.82c.46.7 2.18 1.19 2.21 3.31s5.51 1.81 5.84.09Zm-11.5-2.87-3.79-1.66-2.13-1.19-3-2.4s-2-1.31-2.36-.32 1.2 2.36 1.2 2.36a23.43 23.43 0 0 0 2.35 2.58c.79.61 2.21 1.8 3.55 2.67s3.78-.61 4.18-2.04Z"/><path fill="#ffb592" d="m682.29 443.79-3.79-1.66-2.18-1.19-3-2.41s-2-1.3-2.35-.32 1.19 2.36 1.19 2.36a22.78 22.78 0 0 0 2.36 2.58c.79.61 3.75 3.17 5.09 4s2.28-1.93 2.68-3.36Z"/><path fill="#ffb592" d="m681.86 447.49-3.79-1.66-2.18-1.19-3-2.41s-2-1.31-2.35-.32 1.19 2.35 1.19 2.35a22.63 22.63 0 0 0 2.36 2.59c.78.61 3.63 3 5 3.86s2.37-1.79 2.77-3.22Z"/><path fill="#ffb592" d="m682.79 451.91-3.79-1.66-2.18-1.2-3-2.41s-2-1.3-2.35-.31 1.19 2.35 1.19 2.35a22.63 22.63 0 0 0 2.36 2.59c.78.61 4 3.22 5.38 4.09s1.99-2.02 2.39-3.45Z"/><path fill="#2469ce" d="M759.86 467.73C758.55 472 756 484 753.36 489a15.66 15.66 0 0 1-14.18 8.21c-6.16-.17-12.36-5.11-18.44-10.25s-17.63-17-18.18-18a11.59 11.59 0 0 0-4.51-3.92 2.77 2.77 0 0 1-1.5-3.21 3.83 3.83 0 0 1 .1-.39c2.62-8.55 8-9.75 8-9.75 2.18-1.07 8.5 5.17 11.29 6.33s14.57 6.54 15.73 6.77.9-.73 1.13-1.89.79-.9 1.28-1.11 1.07-4.62 2.23-6.66 2-14.42 5.66-17.76 9.91-1.6 9.91-1.6c.34.34 6.13 6.26 7 10.7s2.29 16.98.98 21.26Z"/><path d="M727 426.88c-1.72 2-4.09 3.91-5.8 3.66-3.08-.47-6.86 2.56-10.11 1.46s-1.6-2.59-3.52-5.09c-1.42-1.84-4.18-1.48-5.53-1.17 5.36-2 16.27-15.58 16.27-15.58l.22.24c.73 3.25 3.18 13.36 5.52 15a13.4 13.4 0 0 0 2.95 1.48Z" style="mix-blend-mode:multiply" fill="#ffb592" opacity=".69"/><path fill="#ffb592" d="M721 402.82c-.44 1.74-1.06 3.53-1.79 5.57-1.71 4.79-3 4.24-5.08 8.81s-4.5 6.66-8 7.77-9.18 3.3-12.56 2.78h-.23c-3.34-.67-4.39-2.24-6.34-9.13s-3.77-22.82.18-32 16.36-9.28 16.36-9.28c14.77.22 17.74 13.36 18.15 18.13a21.31 21.31 0 0 1-.69 7.35Z"/><path d="M721 402.82c-.44 1.74-1.06 3.53-1.79 5.57-1.71 4.79-3 4.24-5.08 8.81s-4.5 6.66-8 7.77-9.18 3.3-12.56 2.78c1-1.43 6.32-2 6.68-5.92.41-4.3 4.74-5.56 5.11-12s-3.09-15.58-3.09-15.58c-.44-6.14 9.77-6.52 14.33-5.16 3.4 1.05 4.23 9.54 4.4 13.73Z" style="mix-blend-mode:multiply" fill="#ffb592" opacity=".51"/><path fill="#0c1e42" d="M693.85 394.71s4.19-.53 7.1.81 5.72-2.19 8.45-3-2.67 2-3.8 5.44-1.74 5.7 0 6.8 2.68 1 3 2.56a11.53 11.53 0 0 1-.11 3.6s3.43.23 3.89-.58-1.14-5.67 1.13-6.43 3.14 3.83 2.79 6-1.69 3.74-1.23 5.57 2.37 2.05 2.64 3 3.05 1.37 3.22-1 2.5-4.18 2.12-6.83-1-2.76-1-2.76 3 .29 3.11-4.22-2-4.33-2-4.33 2-1.1 1-2.21l-1-1.1s6.37-5.38 2.15-10-6.22-3.66-6.22-3.66 1.94-1.43 0-2.42-2.9.18-2.9.18-.18-2.15-6.14-4.09-6.83.14-6.83.14-.93-2.9-4.8-1.71-2.91 3.2-2.91 3.2-4.21-3.86-8.16-.72-.29 6.75-.29 6.75-2.1-1.63-2.73.81a4.39 4.39 0 0 0 .32 3.69s-3.43-1-3.34 2.36a4.91 4.91 0 0 0 4.94 4.76c1.9-.08 7.6-.61 7.6-.61Zm-56.96 259.96s-8.9 2.92-11 3-3.78 3-13.25 4.31-24.57-.36-23.41-4.67a8.29 8.29 0 0 1 .37-1.91 4.86 4.86 0 0 1 2.62-3.24c2.79-1.1 13.37-3.38 18.28-7.54s7.36-5.79 8.46-9.8c0 0 .06-1 3.25-.41s5.24 1 6.2 2.29 4.33 1.78 5.52 1.11a2.05 2.05 0 0 1 2.12 0 37.41 37.41 0 0 0 .5 9.62c.17.72.28 1.41.37 2a17.87 17.87 0 0 1-.03 5.24Zm58.28 40.49a89.37 89.37 0 0 1-4.53 10.59c-7.44 3.2-22.44-1.15-22.82-3a8.73 8.73 0 0 1 .27-3.58 17.85 17.85 0 0 1 2-4.74c1.8-3 5.73-8.23 6.71-14.68a78.28 78.28 0 0 1 2.55-11.28c2.33-1.81 14 .51 14.42 2s.35 5.05 1.17 8.54a46.32 46.32 0 0 1 .91 8.12 27.07 27.07 0 0 1-.68 8.03Zm40.57-164.83s-3.68 19.22 18 27.17c.01 0-14.15-10.08-18-27.17Zm-76.28-2.51s5.86-4.27 10.11-13.75c.11-.26.23-.52.34-.79 4.27-10-5.34 14.65-8.53 17Z"/><path d="M759.86 467.73C758.55 472 756 484 753.36 489a15.66 15.66 0 0 1-14.18 8.21c-6.16-.17-12.36-5.11-18.44-10.25s-17.63-17-18.18-18a11.59 11.59 0 0 0-4.51-3.92 2.77 2.77 0 0 1-1.5-3.21c4 2.37 5.59-.38 7.31-1.3s.18 2.15.45 5.63 20.23 11.95 23.38 16.66 8 3.71 10.32 2.81.21 3.52 4.28 3.57 6.59-6.54 8.1-17.13 1.48-36.28 1.48-36.28c.34.34 6.13 6.26 7 10.7s2.3 16.96.99 21.24Z" style="mix-blend-mode:multiply" fill="#2469ce" opacity=".45"/><path d="M745.06 559.4c-1.13 4.15-26.76 20.51-30 19.87s-3.72 1.22-4.88 4-.92 20.52-2 33.6-6.12 33.7-6.32 40.77c-.18 6.51-.15 6.77-.14 6.77-3 2.55-8.73 3-14.29 2.48a22.28 22.28 0 0 0 3.33-9.65c.89-9.8-1.79-16.83-.22-24.69s7.42-32.68 7.24-43.14-5.1-13.11-4.23-16 11.92-2.91 13.75-6 6-3.63 13.81-5.56 12.46-14 12.46-14l11.72-1.08c.52 5.49.28 10.76-.23 12.63Z" style="mix-blend-mode:multiply" fill="#f0ebff"/><path d="M731.48 465.24c-.55-.2 4.95 6.28 5.91 11.31s-.58-3.9 1.05-3 3.08 6.51 3.49 7.5-.85-12.38-10.45-15.81Z" style="mix-blend-mode:multiply" fill="#2469ce" opacity=".45"/><path d="M676.45 562.35a34.79 34.79 0 0 0-2.3 7.54c-10.17-1.55-22.07-5-23.1-5.2-1.46-.29-.61 3-1.42 7.12s-3.22 17.65-4.17 24-3.45 26.37-2.72 30.29a9.61 9.61 0 0 1-1 6.6c-2.75.58-7.05.39-11.52-.17 1.46-1.65 3.59-4.64 2.56-7.21-1.51-3.77-6.11-5.75-2.39-9.24s9-15 10.86-26.4-6.53-29.42-3.63-30.35 5.59 4.59 6.69-.94-.33-12 3.54-10.93a322.47 322.47 0 0 0 35 5.62c-3.09 4.02-5.66 7.63-6.4 9.27Z" style="mix-blend-mode:multiply" fill="#f0ebff"/><path d="M701.23 426s.33-.11.77-.21a3.56 3.56 0 0 1-.77.21Z" style="mix-blend-mode:multiply" fill="#ffb592" opacity=".46"/><path d="M636.89 654.67s-8.9 2.92-11 3-3.78 3-13.25 4.31-24.57-.36-23.41-4.67a8.29 8.29 0 0 1 .37-1.91c1.25 1.11 5.75 4.34 14.81 3.12 10.87-1.46 13.78-3.9 16.83-4.8s2.61-3.26 6.42-3.41a49.32 49.32 0 0 0 9.26-.86 17.87 17.87 0 0 1-.03 5.22Zm58.28 40.49a89.37 89.37 0 0 1-4.53 10.59c-7.44 3.2-22.44-1.15-22.82-3a8.73 8.73 0 0 1 .27-3.58c4.57 1.35 18.72 5.21 22.14 2.61s4.28-12.06 5.61-14.68a27.07 27.07 0 0 1-.67 8.06Z" style="mix-blend-mode:multiply" fill="#0c1e42"/></g><path fill="#9d79dd" d="M540.78 500.13h272.35v16.47H540.78z"/><path fill="#e0d1fc" d="M330.29 500.13h272.35v16.47H330.29z"/><path fill="#ffb592" d="M285.7 303.7s2.41-3.62 1.61-20.89-14.87-29.73-8.44-62.66 27.72-40.58 45.8-40.58S366 194 370.86 219.74s0 75.12-5.22 79.14-15.27.4-19.28 4.82-4.42 20.08-4.42 20.08-65.48-12.85-56.24-20.08Z"/><path fill="#0c1e42" d="M271.64 237.42s-15.26-35.35-5.22-45.79 79.94-22.5 92.39-20.89 16.07 12 18.88 22.89.8 19.69-1.61 23.3-7.63 7.23-15.26 8.84c0 0 2.41 10.85-9.64 14.86l2.41 10.85-8.84 2.41s-4.42-13.26-12.85-10.89-4.42 14.46-2.82 18.48-.8 18.88-7.63 25.71-12.05 10.84-13.66 13.66-26.51-2-26.51-2-3.61-40.54-9.64-61.43Z"/><path fill="#ffb592" d="m518.68 431.44 6-3.22S532.34 415.77 538 415s6 1.2 12 0 10.84-4.82 13.65-2.81 6 5.62 7.64 14.46 2.81 13.66.8 16.07-22.9 12.45-26.91 12.45-10.45 1.2-12.86 2.41-15.64-20.52-13.64-26.14Z"/><path fill="#ffb592" d="M527.8 423.73s2.94-8.36 4.94-10.37 10.45-6 10.45-6 8-3.62 10-4.82 3.62-2.41 4-2 1.6 0-.4 4.42-5.23 6.42-6.43 6.42-1.21.81-2.81 2.82a34.21 34.21 0 0 1-4 4s-16.28 9.08-15.75 5.53Zm25.55-9.63 11.13-4 6.83-2.41 10.44-4.82s4.82-2.81 5.62-.81-2.41 4.82-4 6.43-9.64 6-9.64 6-11.25 7.63-13.26 6-9.81-5.26-7.12-6.39Z"/><path fill="#ffb592" d="m560.18 419.72 11.13-4 6.83-2.41 10.44-4.82s4.82-2.81 5.62-.8-2.41 4.82-4 6.43-9.64 6-9.64 6-11.25 7.63-13.26 6-9.81-5.26-7.12-6.4Z"/><path fill="#ffb592" d="m559 429.36 11.13-3.95 6.83-2.41 10.44-4.82s4.83-2.81 5.63-.8-2.41 4.82-4 6.43-9.64 6-9.64 6-11.25 7.63-13.25 6-9.86-5.31-7.14-6.45Z"/><path fill="#ffb592" d="m556.16 439.81 11.13-3.95 6.83-2.41 10.44-4.82s4.82-2.82 5.63-.81-2.41 4.82-4 6.43-9.64 6-9.64 6-11.25 7.63-13.26 6-9.82-5.31-7.13-6.44Z"/><path fill="#69dfd4" d="M222.18 405.68s-11.8 44.84-19.83 57.69 1.61 29.33 10 43a127.68 127.68 0 0 0 19.28 23.7s.37-106.16-9.45-124.39Z"/><path fill="#2469ce" d="M514.61 670.39c-.35 1.86-1.07 4.93-2.08 8.91-7.81 30.83-32.79 116.33-32.79 116.33-6.44 0-14.07-1.5-21.34-3.47a214.15 214.15 0 0 1-26.88-9.49s7.75-23.11 7.75-34.86 2.58-29.19.86-49 4.3-45.79 4.3-45.79c-1.72-13.84 73.19 1.16 70.18 17.37Z"/><path d="M512.53 679.3c-7.81 30.83-32.79 116.33-32.79 116.33-6.44 0-14.07-1.5-21.34-3.47.76-1.89 1.81-4.45 3.25-7.9 4.83-11.51 8-52.75 10.44-72.84a152.45 152.45 0 0 1 8.84-35.75Z" style="mix-blend-mode:multiply" fill="#2469ce" opacity=".53"/><path fill="#122f5e" d="m246.34 660.4 128.22 29.02 112.79-12.48-143-29.39-98.01 12.85z"/><path fill="#2469ce" d="M587 848.8c-3.2 4.39-11.8 6.37-20.78 6.86-12.39.67-25.52-1.48-26.22-4-1.2-4.42-6.82-40.57-11.64-51s-9.65-37-16.07-51c-5.18-11.34-4.27-38-3.79-45.83 0-3.82.17-16.35.17-18a1.51 1.51 0 0 0-.67-1.19c-2.07-1.7-9-2.93-22.22-5.23-16.07-2.82-67.49-4.83-86-4.83-14.66 0-66.49-.25-93.7-11.19-7.09-2.84-12.5-6.42-15.16-10.9a78.44 78.44 0 0 1-3.65-7c-.27-.59-.54-1.18-.79-1.77-8.61-19.72-9.21-40.67-9.21-40.67 14.46 6 124.92-30.53 127.33-30.53s100.4 31.25 115.29 35.66c13.2 3.93 31.47 8.17 45.81 22a63.79 63.79 0 0 1 5.21 5.7c14.86 18.48 16.06 43 15.26 53.83S587 848.8 587 848.8Z"/><path fill="#2469ce" d="M319.44 664s-2.29.21-6 .25c-2.61 0-5.92 0-9.64-.25h-.64c-11.26-.81-26-3.49-36.58-11.39a32.36 32.36 0 0 1-9.76-11.46c-13.66-27.31-13.26-51.81-13.26-51.81l68.29 12.85Z"/><path d="M308.64 664.25c-1.52 0-3.15-.12-4.86-.23a2.44 2.44 0 0 0-.64 0c-11.26-.81-26-3.49-36.58-11.39 7.75-1.83 16.16-6.63 19.94-9 .25.59.52 1.18.79 1.77a78.44 78.44 0 0 0 3.65 7l.1.15c2.96 4.9 9.34 8.73 17.6 11.7Z" style="mix-blend-mode:multiply" fill="#2469ce" opacity=".53"/><path fill="#69dfd4" d="M344 321.77c-3.57 3.13-23.7 0-32.94 2.82-6.36 1.93-33.46 2.15-48.29.14-6.73-.91-10.93-2.28-9.56-4.16 0 0-28.92-.8-31.33-16.47s2.81-12.85 2-25.71 9.64-16.47 14.06-16.47 28.92-2.81 45.39 4 29.73 19.28 36.55 26.51a23 23 0 0 0 10 5.84c4.49 1.48 8.78 2.28 11.27 5 4.4 4.85 6.36 15.38 2.85 18.5Z"/><path fill="#69dfd4" d="M409 588.5c-2.81 19.68-57.84 23.7-71.5 22.5s-31.33 6.42-56.64.8a104.06 104.06 0 0 1-12.08-3.43 62.92 62.92 0 0 1-17.1-8.82 77.39 77.39 0 0 0-7.58-5c-8.61-5.09-13.09-25.25-13.45-43.82-.4-20.89-12-35-10.85-54.63s5.22-48.6 5.22-70.7-14.86-44.59-6.42-75.92 39.36-43 50.21-44.18 24.9 1.2 38.56 3.21 45.8 16.07 48.21 16.47 18.07 25.71 26.91 49.41c5.25 14.07 5 29.41 4.64 41.83-.23 8.5-.49 15.62 1 20 3.62 10.84 3.22 61.06 8.44 79.53s.8 14.87 2 31.34 13.26 21.73 10.43 41.41Z"/><path d="M409 588.5c-2.81 19.68-57.84 23.7-71.5 22.5s-31.33 6.42-56.64.8a104.06 104.06 0 0 1-12.08-3.43c17.72-9.93 26.12-30.82 28.55-41.56 2.81-12.45-24.5-20.08-30.13-29.32s7.63-14.46 25.31-21.7 32.54-48.2 16.87-53.42-37.76 3.61-32.13-9.24 26.91-7.63 43.78-22.9 1.61-51.82 1.61-51.82 36.95 0 56.4 23c2.54 3 5.27 8.15 8.09 14.84-.23 8.5-.49 15.62 1 20 3.62 10.84 3.22 61.06 8.44 79.53s.8 14.87 2 31.34 13.26 21.7 10.43 41.38Z" style="mix-blend-mode:multiply" fill="#69dfd4"/><path fill="#ffb592" d="M543.19 851.61s3 22.37-.31 29.06 36.86 1.07 46.1-9.78c0 0-5.22-18.07-4.82-21.29s-39.77.81-40.97 2.01Z"/><path fill="#f95d6c" d="M670.93 911.47a63.84 63.84 0 0 1-24.51 9.64c-13.65 2-62.66.8-64.67-.41a31.87 31.87 0 0 0-4-2s0 3.21-5.22 3.61-32.54-1.61-36.15-4a6.7 6.7 0 0 1-2.7-4.55 11.12 11.12 0 0 1 .19-4.7c.32-1.29.88-3.47 1.58-6.1 2-7.73 5.28-19.32 7.36-23.21 0 0 24.5 1.21 35.35-3.21s6-8 8-9.24a34.35 34.35 0 0 0 2.9-2 2 2 0 0 1 2.67.27 33.13 33.13 0 0 0 8.89 7A339.3 339.3 0 0 0 640 890c6.1 2.14 11.37 3.54 14.43 3.42 7.4-.29 10.84 2 13.25 6.83a31.89 31.89 0 0 1 2.3 6.53c.26 1 .46 2 .6 2.76.25 1.17.35 1.93.35 1.93Z"/><path d="M597 884.75a3 3 0 1 1-3-3 3 3 0 0 1 3 3Zm8.05 2.41a3 3 0 1 1-3-3 3 3 0 0 1 3 3Zm9.24 1.61a3 3 0 1 1-3-3 3 3 0 0 1 3 3Zm9.24 3.23a3 3 0 1 1-3-3 3 3 0 0 1 3 3Z" style="mix-blend-mode:multiply" fill="#f95d6c"/><path fill="#0c1e42" d="M593.83 885a1.8 1.8 0 0 1-1.53-2.1c1.1-6.45 2.94-10 4.3-11.87a1.81 1.81 0 0 1 3 .07l.76 1.14s-3 2.34-4.51 11.31a1.82 1.82 0 0 1-2.02 1.45Zm8.29 2.18a1.81 1.81 0 0 1-1.41-2.26 33.59 33.59 0 0 1 4.5-9.36 1.81 1.81 0 0 1 2.63-.39l1.34 1.08-1.41-1.13h.07a1.82 1.82 0 0 1 .36 2.43 29.88 29.88 0 0 0-4 8.29 1.81 1.81 0 0 1-2.08 1.34Zm9.24 1.61a1.82 1.82 0 0 1-1.4-2.3 21.37 21.37 0 0 1 4-7.58 1.8 1.8 0 0 1 2.75 0 1.8 1.8 0 0 1 0 2.34 17.76 17.76 0 0 0-3.32 6.29 1.83 1.83 0 0 1-2.03 1.25Zm9.64 2.41a1.81 1.81 0 0 1-1.31-2.35 23.8 23.8 0 0 1 3.15-6.12 1.81 1.81 0 0 1 2.7-.29l1.22 1.13-1.33-1.22.1.09a1.79 1.79 0 0 1 .26 2.37 21 21 0 0 0-2.67 5.19 1.81 1.81 0 0 1-2.12 1.2Z"/><path d="M670.61 909.51c-11.22 10.58-38.3 4.39-38.3 4.39.25-15 5-21.43 7.72-23.93 6.1 2.14 11.37 3.54 14.43 3.42 7.4-.29 10.84 2 13.25 6.83a31.89 31.89 0 0 1 2.3 6.53c.26 1.04.46 1.99.6 2.76Z" style="mix-blend-mode:multiply" fill="#f95d6c"/><path fill="#0c1e42" d="M670.93 911.47a63.84 63.84 0 0 1-24.51 9.64c-13.65 2-62.66.8-64.67-.41a31.87 31.87 0 0 0-4-2s0 3.21-5.22 3.61-32.54-1.61-36.15-4a6.7 6.7 0 0 1-2.7-4.55 11.12 11.12 0 0 1 .19-4.7c.32-1.29.88-3.47 1.58-6.1 1.82 1 6 2.9 12.58 2.9 9.07 0 82.11 17.06 122 .91a45.42 45.42 0 0 1 .9 4.7Z"/><path fill="#69dfd4" d="M533.75 461a31.66 31.66 0 0 1-4 8c-2.81 4-30.53 15.66-40.57 22.09s-37.36 14.46-47.4 14.46c-9 0-15.37-2.56-28.64-5.4-1.6-.33-3.29-.68-5.1-1-16.87-3.21-29.33-25.7-40.17-40.57s-30.13-42.18-40.17-54.23-12.45-30.53-12.45-30.53c-2.35-35.81 23.19-45 35.27-45.78a14.49 14.49 0 0 1 5.3.39c24.9 9.24 35.75 39.77 49 60.26s26.11 41 28.12 46.59a6.65 6.65 0 0 0 3.75 3.94c3 1.37 7.06 1.31 9.91 2.09 4.42 1.2 17.27 0 23.7-1.61s47.4-6.42 47.4-6.42c5 2.47 9.06 9.73 11.88 16.19a100.18 100.18 0 0 1 4.17 11.53Z"/><path fill="#0c1e42" d="M344.75 253.89s8.44 52.22 10.85 54.23 16.06 2 18.47-3.62 3.62-27.72 3.62-27.72-3.21-5.22-5.22-6a11.23 11.23 0 0 0-4.82-.4L366 272l-12.45-20.48Z"/><path d="M433.12 453.13c-9.24-9.24-16.87 10.44-22.49 2.81s8.84-6.83 5.22-14.06-27.72-5.62-32.14-14.86 4.42-22.09.81-25.71-14.86 10.44-21.29 3.62 3.21-4.82 9.64-30.53c5.06-20.23-14-39.22-22.37-46.39a14.49 14.49 0 0 1 5.3.39c24.9 9.24 35.75 39.77 49 60.26s26.11 41 28.12 46.59a6.65 6.65 0 0 0 3.75 3.94c.62 10.38.59 18.08-3.55 13.94Z" style="mix-blend-mode:multiply" fill="#69dfd4"/><path fill="#ffb592" d="M436.06 782.52s-6.36 21.29-9.75 24.1 29.26 10.45 46.64-.8c0 0 .43-10.85 3.4-15.67s-36.05-12.05-40.29-7.63Z"/><path fill="#f95d6c" d="M523.48 851.61a9.47 9.47 0 0 1-.43 2.5c-1.68 5-66.9-7.52-68.57-9.19a7.37 7.37 0 0 1-1.67-4.6l-4.6 2.5s-34.71-6.27-36.38-14.63c0 0 1.72-3.45 4.34-8.22 3.48-6.34 8.56-15 13.34-21 0 0 18.53 10 24.1 9.64 12.66-.75 13.16-8 15.67-8.84s7.63 0 7.63 0 13.19 20.64 22.18 30.15a24.34 24.34 0 0 0 4.72 4.11c7.95 4.59 15.06 6.68 16.31 6.68.86 0 2.71 3.95 3.24 8a15.89 15.89 0 0 1 .12 2.9Z"/><path d="M475.64 812.85a2.58 2.58 0 1 1-2.55-2.21 2.4 2.4 0 0 1 2.55 2.21Zm4.82 5.22a2.58 2.58 0 1 1-2.55-2.21 2.4 2.4 0 0 1 2.55 2.21Zm5.22 6.03a2.57 2.57 0 1 1-2.55-2.21 2.4 2.4 0 0 1 2.55 2.21Zm4.42 5.62a2.58 2.58 0 1 1-2.55-2.21 2.4 2.4 0 0 1 2.55 2.21Zm33.38 21.89c-8.92 2.29-32.51-4.82-32.51-4.82 2.48-9.1 6.1-14.41 8.12-16.85a24.34 24.34 0 0 0 4.72 4.11c7.95 4.59 15.06 6.68 16.31 6.68.86 0 2.71 3.95 3.24 8a15.89 15.89 0 0 1 .12 2.88Z" style="mix-blend-mode:multiply" fill="#f95d6c"/><path fill="#0c1e42" d="M523.05 854.11c-1.68 5-66.9-7.52-68.57-9.19a7.37 7.37 0 0 1-1.67-4.6l-4.6 2.5s-34.71-6.27-36.38-14.63c0 0 1.72-3.45 4.34-8.22.64 1.18 2.6 3.51 8.52 6.74C433.53 831.53 460 838 460 838s46.54 12.82 63.32 10.82a12.38 12.38 0 0 1-.27 5.29Zm-50.55-40.65a1.61 1.61 0 0 1-.22-2.29c3.16-3.76 5.47-5.61 7-6.52a1.61 1.61 0 0 1 2.41 1.4v1h.14s-2.28.45-7.13 6.22a1.61 1.61 0 0 1-2.2.19Zm5.23 5.23a1.62 1.62 0 0 1-.18-2.31 23.18 23.18 0 0 1 6.25-5.4 1.6 1.6 0 0 1 2.35 1.42v1.05h.11s-2.15.34-6.3 5.06a1.61 1.61 0 0 1-2.23.18Zm5.27 5.62a1.61 1.61 0 0 1-.13-2.3 27.7 27.7 0 0 1 5.39-4.77 1.6 1.6 0 0 1 2.43 1.1l.19 1.12h.09s-1.88.56-5.73 4.74a1.61 1.61 0 0 1-2.24.11Zm4.37 6.03a1.61 1.61 0 0 1-.13-2.3 27.85 27.85 0 0 1 5.39-4.78 1.6 1.6 0 0 1 2.43 1.1l.19 1.12h.08s-1.88.56-5.72 4.75a1.61 1.61 0 0 1-2.24.11Z"/><path d="M533.75 461a31.66 31.66 0 0 1-4 8c-2.81 4-30.53 15.66-40.57 22.09s-37.36 14.46-47.4 14.46c-9 0-15.37-2.56-28.64-5.4a30 30 0 0 0 10.76-5.24c11.65-8.84 22.1-33.34 25.71-20.49s12.05 12.05 18.88 6.43 6.83-8 14.87-8 34.54-8.43 38.16-13.25c3.14-4.19 5.44-10.2 8.06-10.12a100.18 100.18 0 0 1 4.17 11.52ZM344 321.77c-3.57 3.13-23.7 0-32.94 2.82-6.36 1.93-33.46 2.15-48.29.14 10-6.6 7.46-19.44 17.63-19.59 11.51-.16 8.16-8.67 5.75-14.3s9.24-4 23.7 6c12.76 8.86 14.57 4.28 20.06 1.42 4.49 1.48 8.78 2.28 11.27 5 4.37 4.86 6.33 15.39 2.82 18.51Z" style="mix-blend-mode:multiply" fill="#69dfd4"/><path fill="#0c1e42" d="m290.52 587.3 53.43 108.86-7.64-2.41-53.42-108.06 7.63 1.61z"/><path fill="#122f5e" d="M383.31 679.29V858.8a12.5 12.5 0 0 1-12.5 12.5h-7.18a12.5 12.5 0 0 1-12.45-12.5V679.29Z"/><path fill="#0c1e42" d="m218.62 571.63 53.42 108.86-7.63-2.41-53.42-108.06 7.63 1.61z"/><path d="M527.12 668.84c4.58 5.57-7.38-3.28-19.15 15.68-2.07-1.7-9-2.93-22.22-5.23-16.07-2.82-67.49-4.83-86-4.83-14.21 0-63.36-.23-91.14-10.21-8.26-3-14.63-6.8-17.62-11.73l-.1-.15a78.44 78.44 0 0 1-3.65-7c.27-.95 35.79 15.81 69.53 11.39S401 632.29 413 643.94s12.45 16.47 21.29 15.66 36.15-14.58 46-9.1 10.25 11.91 22.7 11.91 29.32-24.9 29.72-14.06-11.21 13.65-5.59 20.49ZM587 848.8c-3.2 4.39-11.8 6.37-20.78 6.86-2.87-16.79-13.41-43.76-11.35-59.88 2.41-18.88-3.62-25.31-8.84-59s7.63-33.74 20.49-69.5c6.14-17.08 3.57-29.12-.79-37a63.79 63.79 0 0 1 5.21 5.7c14.86 18.48 16.06 43 15.26 53.83s.8 158.99.8 158.99Z" style="mix-blend-mode:multiply" fill="#2469ce" opacity=".53"/><path fill="#62a5f4" d="M435.4 769.62s42.07 12.68 49 12.39l-4.3 14.57s-30.13 0-49.81-13.66Zm102.11 69.21s28.3 7.15 49.32-3.49l1.35-.2V850s-15.27 13.65-48.61 3.21Z"/><path fill="#0c1e42" d="m285.92 589.08-14.71-1.93-65.11-8.55a31 31 0 0 1-26.48-25.21l-9.47-52.08a31 31 0 0 1 33.64-36.4l38.06 3.85 46.45 4.69a31 31 0 0 1 27.78 28.12l4.78 54a31 31 0 0 1-34.94 33.51Zm201.43 87.79v4.87a15.65 15.65 0 0 1-13.93 15.56l-90.11 10-9.47 1a15.67 15.67 0 0 1-5.11-.27l-2.27-.51-107.86-23.91a15.65 15.65 0 0 1-12.27-15.28v-7.92l125.07 28Z"/><path fill="#122f5e" d="m411.84 917.81-.65-16.16a30.55 30.55 0 0 0-7.86-19.27l-35.62-39.44 11.92-10.77 35.63 39.44a46.8 46.8 0 0 1 12 29.4l.64 16.16Zm-87.98-.32h-16.07v-24a46.89 46.89 0 0 1 14-33.28l32.21-31.6 11.26 11.46L333 871.71a30.74 30.74 0 0 0-9.16 21.81Z"/><path fill="#122f5e" d="m335.71 865.55-16-1.37V864a46.42 46.42 0 0 1 39.53-42l2.33 15.9a30.24 30.24 0 0 0-25.85 27.49Zm60.86 3.07A31.11 31.11 0 0 0 379 841l-11.27-5.5 7-14.45 11.28 5.5a47.14 47.14 0 0 1 26.58 41.76Z"/><path d="M383.31 707.28V858.8a12.5 12.5 0 0 1-12.5 12.5h-7.18c2.81-5.63 10.85-37.36 10.85-56.24s-10.48-51.42-12.86-66.68c-1.83-11.62 2.61-31.83 4.84-40.84l2.27.51a15.67 15.67 0 0 0 5.11.27Z" style="mix-blend-mode:multiply" fill="#122f5e" opacity=".29"/><path fill="#122f5e" d="M330.29 917.09a14.47 14.47 0 1 1-14.46-14.86 14.67 14.67 0 0 1 14.46 14.86Zm105.24-2.81a14.47 14.47 0 1 1-14.46-14.87 14.66 14.66 0 0 1 14.46 14.87Z"/><ellipse cx="423.88" cy="914.28" fill="#62a5f4" rx="9.77" ry="10.04"/><path fill="#62a5f4" d="M324 917.89a9.77 9.77 0 1 1-9.77-10 9.91 9.91 0 0 1 9.77 10Z"/><path d="m285.92 589.08-14.71-1.93c1-.71 1.94-1.47 2.84-2.26 10-8.84 20.89-10.45 23.1-22.16s-4.22-22.83-6.63-39.3 5.22-18.48-4-34.95-45.56-19.28-45.56-19.28l.91-.44 46.45 4.69a31 31 0 0 1 27.78 28.12l4.78 54a31 31 0 0 1-34.96 33.51Z" style="mix-blend-mode:multiply" fill="#0c1e42"/><path fill="#7b4fc9" d="m601.95 947.23-12.57 1.19V516.6h33.75l-21.18 430.63zm169.49-44.47 13.17 1.07V516.2h-35.35l22.18 386.56z"/><path fill="#f0ebff" d="M454.62 238.84h361.4v17.28h-361.4zm83.61-98.81h361.4v17.28h-361.4z"/><path fill="#9d79dd" d="M494.7 255.43h14.51v43.53H494.7zm252.22 0h14.51v43.53h-14.51zM580.38 157.3h14.51v43.53h-14.51zm252.23 0h14.51v43.53h-14.51z"/><path fill="#1d4d95" d="M598.35 51.58h25.57v87.07h-25.57z"/><path fill="#f95d6c" d="M627.37 67.47h15.89v71.17h-15.89z"/><path fill="#1d4d95" d="M659.85 56.42h16.58v82.23h-16.58z"/><path fill="#f95d6c" d="M681.96 56.42h16.58v82.23h-16.58z"/><path fill="#feb500" d="M602.5 166.98h15.89v73.25H602.5zm20.04 0h15.89v73.25h-15.89z"/><path fill="#feb500" d="M643.27 175.27h11.06v64.96h-11.06z" transform="rotate(-7.23 648.605 207.68)"/><path d="M538.23 140s54.59 9 92.6 8.29 94-11.06 120.24-4.15S873.38 149 899.63 140v17.3h-361.4Z" style="mix-blend-mode:multiply" fill="#f0ebff"/></g></svg>